<svg width="14" height="14" viewBox="0 0 14 14" fill="none" xmlns="http://www.w3.org/2000/svg">
<path d="M6.99992 0.333328C3.31992 0.333328 0.333252 3.31999 0.333252 7C0.333252 10.68 3.31992 13.6667 6.99992 13.6667C10.6799 13.6667 13.6666 10.68 13.6666 7C13.6666 3.31999 10.6799 0.333328 6.99992 0.333328ZM6.99992 12.3333C4.05992 12.3333 1.66659 9.93999 1.66659 7C1.66659 4.06 4.05992 1.66666 6.99992 1.66666C9.93992 1.66666 12.3333 4.06 12.3333 7C12.3333 9.93999 9.93992 12.3333 6.99992 12.3333ZM10.0599 4.05333L5.66659 8.44666L3.93992 6.72666L2.99992 7.66666L5.66659 10.3333L10.9999 5L10.0599 4.05333Z" fill="#717784"/>
</svg>
