<svg width="18" height="18" viewBox="0 0 18 18" fill="none" xmlns="http://www.w3.org/2000/svg">
<path d="M9.00008 0.666668C4.41675 0.666668 0.666748 4.41667 0.666748 9C0.666748 13.5833 4.41675 17.3333 9.00008 17.3333C13.5834 17.3333 17.3334 13.5833 17.3334 9C17.3334 4.41667 13.5834 0.666668 9.00008 0.666668ZM9.00008 15.6667C5.32508 15.6667 2.33341 12.675 2.33341 9C2.33341 5.325 5.32508 2.33333 9.00008 2.33333C12.6751 2.33333 15.6667 5.325 15.6667 9C15.6667 12.675 12.6751 15.6667 9.00008 15.6667ZM9.41675 4.83333H8.16675V9.83333L12.5001 12.5L13.1667 11.4167L9.41675 9.16667L9.41675 4.83333Z" fill="#717784"/>
</svg>
