<svg width="13" height="15" viewBox="0 0 13 15" fill="none" xmlns="http://www.w3.org/2000/svg">
<path d="M4.04663 0.67334H8.04663V2.00667H4.04663V0.67334ZM5.37996 5.34001H6.7133V9.34001H5.37996V5.34001ZM10.7333 4.92667L11.68 3.98001C11.3933 3.64001 11.08 3.32001 10.74 3.04001L9.7933 3.98667C8.75996 3.16001 7.45996 2.66667 6.04663 2.66667C2.7333 2.66667 0.0466309 5.35334 0.0466309 8.66667C0.0466309 11.98 2.72663 14.6667 6.04663 14.6667C9.36663 14.6667 12.0466 11.98 12.0466 8.66667C12.0466 7.26001 11.5533 5.95334 10.7333 4.92667ZM6.04663 13.34C3.46663 13.34 1.37996 11.2533 1.37996 8.67334C1.37996 6.09334 3.46663 4.00667 6.04663 4.00667C8.62663 4.00667 10.7133 6.09334 10.7133 8.67334C10.7133 11.2533 8.62663 13.34 6.04663 13.34Z" fill="#717784"/>
</svg>
