<svg width="18" height="18" viewBox="0 0 18 18" fill="none" xmlns="http://www.w3.org/2000/svg">
<path d="M9.00008 0.666668C4.40008 0.666668 0.666748 4.4 0.666748 9C0.666748 13.6 4.40008 17.3333 9.00008 17.3333C13.6001 17.3333 17.3334 13.6 17.3334 9C17.3334 4.4 13.6001 0.666668 9.00008 0.666668ZM9.00008 15.6667C5.32508 15.6667 2.33341 12.675 2.33341 9C2.33341 5.325 5.32508 2.33333 9.00008 2.33333C12.6751 2.33333 15.6667 5.325 15.6667 9C15.6667 12.675 12.6751 15.6667 9.00008 15.6667ZM9.25842 8.28334C7.78342 7.90834 7.30842 7.5 7.30842 6.89167C7.30842 6.19167 7.96675 5.7 9.05841 5.7C10.2084 5.7 10.6417 6.25 10.6751 7.06667L12.1001 7.06667C12.0584 5.95 11.3751 4.925 10.0251 4.59167V3.16667L8.08341 3.16667V4.575C6.82508 4.84167 5.81675 5.65833 5.81675 6.91667C5.81675 8.40833 7.05841 9.15833 8.86675 9.59167C10.4917 9.975 10.8167 10.55 10.8167 11.15C10.8167 11.5917 10.4917 12.3083 9.06675 12.3083C7.73342 12.3083 7.20842 11.7083 7.13342 10.9417H5.70008C5.78341 12.3583 6.83341 13.1583 8.08341 13.4167V14.8333H10.0334V13.4417C11.3001 13.2 12.3001 12.475 12.3084 11.1333C12.3001 9.3 10.7251 8.66667 9.25842 8.28334Z" fill="#717784"/>
</svg>
