<svg width="167" height="32" viewBox="0 0 167 32" fill="none" xmlns="http://www.w3.org/2000/svg">
<path d="M34 22.4447V8.12798H41.0129C42.7898 8.12798 44.1007 8.46059 44.9454 9.12581C45.7902 9.79103 46.2126 10.7455 46.2126 11.9892C46.2126 12.799 45.9722 13.5004 45.4916 14.0933C45.011 14.6862 44.2754 15.055 43.285 15.1996V15.2213C44.392 15.3659 45.2149 15.7491 45.7538 16.3709C46.3072 16.9783 46.584 17.7158 46.584 18.5835C46.584 19.8127 46.1397 20.7672 45.2513 21.4469C44.3774 22.1121 43.0739 22.4447 41.3406 22.4447H34ZM37.6266 13.9848H40.3575C41.6975 13.9848 42.3675 13.4642 42.3675 12.423C42.3675 11.3818 41.6975 10.8612 40.3575 10.8612H37.6266V13.9848ZM37.6266 19.82H40.7071C42.0616 19.82 42.7389 19.2849 42.7389 18.2147C42.7389 17.1735 42.0616 16.6529 40.7071 16.6529H37.6266V19.82Z" fill="#0F0E12"/>
<path d="M54.4317 15.5683C54.4317 15.0622 54.286 14.6645 53.9947 14.3753C53.718 14.0716 53.3393 13.9197 52.8587 13.9197C52.378 13.9197 51.9629 14.0427 51.6134 14.2885C51.2784 14.5199 51.0454 14.9393 50.9143 15.5466L47.7683 14.8091C47.9722 13.7679 48.5111 12.9364 49.385 12.3145C50.2589 11.6927 51.4896 11.3818 53.0771 11.3818C54.6793 11.3818 55.9173 11.7361 56.7912 12.4447C57.6796 13.1388 58.1238 14.1584 58.1238 15.5033V19.4729C58.1238 20.0369 58.3787 20.3189 58.8885 20.3189C59.1507 20.3189 59.3618 20.2899 59.5221 20.2321L59.3036 22.3362C58.8666 22.5387 58.335 22.6399 57.7087 22.6399C57.0242 22.6399 56.4343 22.5098 55.9391 22.2495C55.4439 21.9747 55.1089 21.5625 54.9341 21.013C54.6283 21.577 54.1404 21.9964 53.4704 22.2711C52.815 22.5315 52.1159 22.6616 51.3731 22.6616C50.2516 22.6616 49.3558 22.4085 48.6859 21.9024C48.0304 21.3818 47.7027 20.637 47.7027 19.6681C47.7027 18.8872 47.9358 18.2437 48.4018 17.7375C48.8825 17.2169 49.6326 16.8554 50.6521 16.6529L54.4317 15.872V15.5683ZM51.3731 19.321C51.3731 19.6392 51.4896 19.8778 51.7226 20.0369C51.9557 20.1959 52.2324 20.2755 52.5528 20.2755C53.048 20.2755 53.485 20.1309 53.8636 19.8416C54.2423 19.538 54.4317 19.068 54.4317 18.4317V17.8243L52.662 18.1931C52.2251 18.2798 51.8974 18.41 51.6789 18.5835C51.475 18.7426 51.3731 18.9884 51.3731 19.321Z" fill="#0F0E12"/>
<path d="M65.7444 11.3818C66.8513 11.3818 67.7689 11.5409 68.4971 11.859C69.2399 12.1772 69.8152 12.5893 70.223 13.0954C70.6308 13.6016 70.893 14.1511 71.0095 14.744L67.5795 15.872C67.4921 15.2502 67.3101 14.7874 67.0333 14.4837C66.7566 14.1656 66.3634 14.0065 65.8536 14.0065C65.1545 14.0065 64.6229 14.2523 64.2587 14.744C63.9092 15.2357 63.7344 16.0094 63.7344 17.0651C63.7344 18.1352 63.9238 18.9017 64.3024 19.3644C64.6957 19.8127 65.22 20.0369 65.8754 20.0369C66.9095 20.0369 67.514 19.4512 67.6888 18.2798L71.0314 19.3427C70.8712 20.2827 70.3395 21.0709 69.4365 21.7072C68.5481 22.3435 67.3683 22.6616 65.8973 22.6616C64.1058 22.6616 62.6712 22.1699 61.5934 21.1866C60.5302 20.1887 59.9986 18.8004 59.9986 17.0217C59.9986 15.8359 60.2389 14.8236 60.7195 13.9848C61.2147 13.1461 61.892 12.5025 62.7513 12.0542C63.6106 11.6059 64.6083 11.3818 65.7444 11.3818Z" fill="#0F0E12"/>
<path d="M76.3402 7V16.154L80.4911 11.5987H84.6203L80.6004 15.8503L84.8606 22.4447H80.7533L78.1098 17.9978L76.3402 19.9501V22.4447H72.6262V7H76.3402Z" fill="#0F0E12"/>
<path d="M85.8805 27V11.5987H89.2231L89.3324 13.7896C89.6382 13.0665 90.097 12.4881 90.7088 12.0542C91.335 11.6059 92.0706 11.3818 92.9153 11.3818C94.2553 11.3818 95.3331 11.8735 96.1487 12.8568C96.9789 13.8402 97.394 15.214 97.394 16.9783C97.394 18.7715 96.9716 20.167 96.1268 21.1649C95.2967 22.1627 94.2116 22.6616 92.8716 22.6616C92.0851 22.6616 91.4151 22.4736 90.8617 22.0976C90.3082 21.7072 89.8858 21.201 89.5945 20.5792V27H85.8805ZM91.6045 19.9501C92.2453 19.9501 92.7478 19.7187 93.1119 19.256C93.4761 18.7787 93.6581 18.034 93.6581 17.0217C93.6581 16.0094 93.4761 15.2719 93.1119 14.8091C92.7624 14.3319 92.2672 14.0933 91.6263 14.0933C91 14.0933 90.5048 14.3463 90.1407 14.8525C89.7766 15.3442 89.5945 16.0672 89.5945 17.0217C89.5945 17.9328 89.7693 18.6486 90.1189 19.1692C90.4684 19.6898 90.9636 19.9501 91.6045 19.9501Z" fill="#0F0E12"/>
<path d="M105.23 15.5683C105.23 15.0622 105.085 14.6645 104.793 14.3753C104.517 14.0716 104.138 13.9197 103.657 13.9197C103.177 13.9197 102.762 14.0427 102.412 14.2885C102.077 14.5199 101.844 14.9393 101.713 15.5466L98.5669 14.8091C98.7708 13.7679 99.3097 12.9364 100.184 12.3145C101.057 11.6927 102.288 11.3818 103.876 11.3818C105.478 11.3818 106.716 11.7361 107.59 12.4447C108.478 13.1388 108.922 14.1584 108.922 15.5033V19.4729C108.922 20.0369 109.177 20.3189 109.687 20.3189C109.949 20.3189 110.16 20.2899 110.321 20.2321L110.102 22.3362C109.665 22.5387 109.134 22.6399 108.507 22.6399C107.823 22.6399 107.233 22.5098 106.738 22.2495C106.243 21.9747 105.908 21.5625 105.733 21.013C105.427 21.577 104.939 21.9964 104.269 22.2711C103.614 22.5315 102.914 22.6616 102.172 22.6616C101.05 22.6616 100.154 22.4085 99.4844 21.9024C98.829 21.3818 98.5013 20.637 98.5013 19.6681C98.5013 18.8872 98.7344 18.2437 99.2004 17.7375C99.6811 17.2169 100.431 16.8554 101.451 16.6529L105.23 15.872V15.5683ZM102.172 19.321C102.172 19.6392 102.288 19.8778 102.521 20.0369C102.754 20.1959 103.031 20.2755 103.351 20.2755C103.847 20.2755 104.284 20.1309 104.662 19.8416C105.041 19.538 105.23 19.068 105.23 18.4317V17.8243L103.461 18.1931C103.024 18.2798 102.696 18.41 102.478 18.5835C102.274 18.7426 102.172 18.9884 102.172 19.321Z" fill="#0F0E12"/>
<path d="M116.543 11.3818C117.65 11.3818 118.567 11.5409 119.296 11.859C120.038 12.1772 120.614 12.5893 121.022 13.0954C121.429 13.6016 121.692 14.1511 121.808 14.744L118.378 15.872C118.291 15.2502 118.109 14.7874 117.832 14.4837C117.555 14.1656 117.162 14.0065 116.652 14.0065C115.953 14.0065 115.421 14.2523 115.057 14.744C114.708 15.2357 114.533 16.0094 114.533 17.0651C114.533 18.1352 114.722 18.9017 115.101 19.3644C115.494 19.8127 116.019 20.0369 116.674 20.0369C117.708 20.0369 118.313 19.4512 118.487 18.2798L121.83 19.3427C121.67 20.2827 121.138 21.0709 120.235 21.7072C119.347 22.3435 118.167 22.6616 116.696 22.6616C114.904 22.6616 113.47 22.1699 112.392 21.1866C111.329 20.1887 110.797 18.8004 110.797 17.0217C110.797 15.8359 111.037 14.8236 111.518 13.9848C112.013 13.1461 112.691 12.5025 113.55 12.0542C114.409 11.6059 115.407 11.3818 116.543 11.3818Z" fill="#0F0E12"/>
<path d="M127.139 7V16.154L131.29 11.5987H135.419L131.399 15.8503L135.659 22.4447H131.552L128.908 17.9978L127.139 19.9501V22.4447H123.425V7H127.139Z" fill="#0F0E12"/>
<path d="M141.412 22.6616C139.592 22.6616 138.15 22.1699 137.087 21.1866C136.038 20.2032 135.514 18.8149 135.514 17.0217C135.514 15.8359 135.754 14.8236 136.235 13.9848C136.73 13.1316 137.4 12.4881 138.245 12.0542C139.104 11.6059 140.102 11.3818 141.238 11.3818C142.388 11.3818 143.364 11.6059 144.165 12.0542C144.981 12.4881 145.6 13.0954 146.022 13.8764C146.445 14.6428 146.656 15.5249 146.656 16.5228C146.656 16.7975 146.641 17.0651 146.612 17.3254C146.598 17.5712 146.583 17.7809 146.568 17.9544H139.118C139.22 18.7064 139.468 19.2487 139.861 19.5813C140.255 19.8995 140.772 20.0586 141.412 20.0586C141.966 20.0586 142.403 19.9501 142.723 19.7332C143.058 19.5163 143.306 19.2126 143.466 18.8221L146.437 19.7983C146.233 20.4201 145.877 20.9479 145.367 21.3818C144.872 21.8012 144.274 22.1193 143.575 22.3362C142.891 22.5531 142.17 22.6616 141.412 22.6616ZM141.238 13.9631C140.058 13.9631 139.359 14.6356 139.14 15.9805H143.138C142.978 14.6356 142.345 13.9631 141.238 13.9631Z" fill="#0F0E12"/>
<path d="M148.397 22.4447V11.5987H151.674L151.827 13.9414C152.09 13.1461 152.49 12.5242 153.029 12.0759C153.582 11.6132 154.289 11.3818 155.148 11.3818C155.425 11.3818 155.658 11.4107 155.847 11.4685C156.051 11.5119 156.211 11.5625 156.328 11.6204L155.956 14.6573C155.811 14.6139 155.621 14.5705 155.388 14.5271C155.17 14.4837 154.901 14.462 154.58 14.462C153.91 14.462 153.328 14.6717 152.832 15.0911C152.352 15.5105 152.111 16.1396 152.111 16.9783V22.4447H148.397Z" fill="#0F0E12"/>
<path d="M161.866 22.6616C160.774 22.6616 159.761 22.4881 158.829 22.141C157.897 21.7795 157.118 21.2661 156.492 20.6009L158.239 18.5618C158.603 19.0246 159.084 19.415 159.681 19.7332C160.293 20.0369 160.97 20.1887 161.713 20.1887C162.164 20.1887 162.536 20.1236 162.827 19.9935C163.118 19.8633 163.264 19.6609 163.264 19.3861C163.264 19.1981 163.191 19.039 163.046 18.9089C162.9 18.7787 162.609 18.6703 162.172 18.5835L160.642 18.2798C159.273 18.0051 158.298 17.6001 157.715 17.0651C157.147 16.5155 156.863 15.7997 156.863 14.9176C156.863 14.3247 157.045 13.7607 157.409 13.2256C157.773 12.6905 158.334 12.2495 159.091 11.9024C159.849 11.5553 160.817 11.3818 161.997 11.3818C164.255 11.3818 165.9 12.0036 166.934 13.2473L165.165 15.2429C164.815 14.8091 164.364 14.4693 163.81 14.2234C163.257 13.9776 162.703 13.8547 162.15 13.8547C161.087 13.8547 160.555 14.1222 160.555 14.6573C160.555 14.8453 160.642 15.0116 160.817 15.1562C161.007 15.3008 161.349 15.4165 161.844 15.5033L163.832 15.8937C164.954 16.1106 165.762 16.4866 166.257 17.0217C166.752 17.5423 167 18.1786 167 18.9306C167 19.9863 166.57 20.8756 165.711 21.5987C164.866 22.3073 163.585 22.6616 161.866 22.6616Z" fill="#0F0E12"/>
<circle cx="12" cy="22" r="10" fill="#CC9AFF"/>
<path d="M0 12H12V32H0V12Z" fill="#8913FF"/>
<path d="M0 0H6C9.31371 0 12 2.68629 12 6V12H0V0Z" fill="#0F0E12"/>
</svg>
