<svg width="154" height="32" viewBox="0 0 154 32" fill="none" xmlns="http://www.w3.org/2000/svg">
<circle cx="9.59995" cy="6.4" r="6.4" fill="white"/>
<circle cx="9.6" cy="22.4" r="9.6" fill="white"/>
<path d="M0 0H9.6V32C4.29806 32 0 27.7019 0 22.4V0Z" fill="white"/>
<path d="M27.1184 23.2V9.47198H33.7952C35.4869 9.47198 36.7349 9.79091 37.5392 10.4288C38.3435 11.0666 38.7456 11.9818 38.7456 13.1744C38.7456 13.9509 38.5168 14.6234 38.0592 15.192C37.6016 15.7605 36.9013 16.1141 35.9584 16.2528V16.2736C37.0123 16.4122 37.7957 16.7797 38.3088 17.376C38.8357 17.9584 39.0992 18.6656 39.0992 19.4976C39.0992 20.6762 38.6763 21.5914 37.8304 22.2432C36.9984 22.881 35.7573 23.2 34.1072 23.2H27.1184ZM30.5712 15.088H33.1712C34.4469 15.088 35.0848 14.5888 35.0848 13.5904C35.0848 12.592 34.4469 12.0928 33.1712 12.0928H30.5712V15.088ZM30.5712 20.6832H33.504C34.7936 20.6832 35.4384 20.1701 35.4384 19.144C35.4384 18.1456 34.7936 17.6464 33.504 17.6464H30.5712V20.6832Z" fill="white"/>
<path d="M46.5708 16.6064C46.5708 16.121 46.4321 15.7397 46.1548 15.4624C45.8913 15.1712 45.5308 15.0256 45.0732 15.0256C44.6156 15.0256 44.2204 15.1434 43.8876 15.3792C43.5686 15.601 43.3468 16.0032 43.222 16.5856L40.2268 15.8784C40.4209 14.88 40.934 14.0826 41.766 13.4864C42.598 12.8901 43.7697 12.592 45.2812 12.592C46.8065 12.592 47.9852 12.9317 48.8172 13.6112C49.663 14.2768 50.086 15.2544 50.086 16.544V20.3504C50.086 20.8912 50.3286 21.1616 50.814 21.1616C51.0636 21.1616 51.2646 21.1338 51.4172 21.0784L51.2092 23.096C50.7932 23.2901 50.287 23.3872 49.6908 23.3872C49.039 23.3872 48.4774 23.2624 48.006 23.0128C47.5345 22.7493 47.2156 22.3541 47.0492 21.8272C46.758 22.368 46.2934 22.7701 45.6556 23.0336C45.0316 23.2832 44.366 23.408 43.6588 23.408C42.591 23.408 41.7382 23.1653 41.1004 22.68C40.4764 22.1808 40.1644 21.4666 40.1644 20.5376C40.1644 19.7888 40.3862 19.1717 40.83 18.6864C41.2876 18.1872 42.0017 17.8405 42.9724 17.6464L46.5708 16.8976V16.6064ZM43.6588 20.2048C43.6588 20.5098 43.7697 20.7386 43.9916 20.8912C44.2134 21.0437 44.4769 21.12 44.782 21.12C45.2534 21.12 45.6694 20.9813 46.03 20.704C46.3905 20.4128 46.5708 19.9621 46.5708 19.352V18.7696L44.886 19.1232C44.47 19.2064 44.158 19.3312 43.95 19.4976C43.7558 19.6501 43.6588 19.8858 43.6588 20.2048Z" fill="white"/>
<path d="M57.3412 12.592C58.3951 12.592 59.2687 12.7445 59.962 13.0496C60.6692 13.3546 61.217 13.7498 61.6052 14.2352C61.9935 14.7205 62.2431 15.2474 62.354 15.816L59.0884 16.8976C59.0052 16.3013 58.8319 15.8576 58.5684 15.5664C58.305 15.2613 57.9306 15.1088 57.4452 15.1088C56.7796 15.1088 56.2735 15.3445 55.9268 15.816C55.594 16.2874 55.4276 17.0293 55.4276 18.0416C55.4276 19.0677 55.6079 19.8026 55.9684 20.2464C56.3428 20.6762 56.842 20.8912 57.466 20.8912C58.4506 20.8912 59.026 20.3296 59.1924 19.2064L62.3748 20.2256C62.2223 21.1269 61.7162 21.8826 60.8564 22.4928C60.0106 23.1029 58.8874 23.408 57.4868 23.408C55.7812 23.408 54.4154 22.9365 53.3892 21.9936C52.377 21.0368 51.8708 19.7056 51.8708 18C51.8708 16.8629 52.0996 15.8922 52.5572 15.088C53.0287 14.2837 53.6735 13.6666 54.4916 13.2368C55.3098 12.8069 56.2596 12.592 57.3412 12.592Z" fill="white"/>
<path d="M67.4292 8.39038V17.168L71.3812 12.8H75.3124L71.4852 16.8768L75.5412 23.2H71.6308L69.114 18.936L67.4292 20.808V23.2H63.8932V8.39038H67.4292Z" fill="white"/>
<path d="M76.5122 27.568V12.8H79.6946L79.7986 14.9008C80.0898 14.2074 80.5266 13.6528 81.109 13.2368C81.7053 12.8069 82.4056 12.592 83.2098 12.592C84.4856 12.592 85.5117 13.0634 86.2882 14.0064C87.0786 14.9493 87.4738 16.2666 87.4738 17.9584C87.4738 19.6778 87.0717 21.016 86.2674 21.9728C85.477 22.9296 84.444 23.408 83.1682 23.408C82.4194 23.408 81.7816 23.2277 81.2546 22.8672C80.7277 22.4928 80.3256 22.0074 80.0482 21.4112V27.568H76.5122ZM81.9618 20.808C82.572 20.808 83.0504 20.5861 83.397 20.1424C83.7437 19.6848 83.917 18.9706 83.917 18C83.917 17.0293 83.7437 16.3221 83.397 15.8784C83.0642 15.4208 82.5928 15.192 81.9826 15.192C81.3864 15.192 80.9149 15.4346 80.5682 15.92C80.2216 16.3914 80.0482 17.0848 80.0482 18C80.0482 18.8736 80.2146 19.56 80.5474 20.0592C80.8802 20.5584 81.3517 20.808 81.9618 20.808Z" fill="white"/>
<path d="M94.9345 16.6064C94.9345 16.121 94.7958 15.7397 94.5185 15.4624C94.255 15.1712 93.8945 15.0256 93.4369 15.0256C92.9793 15.0256 92.5841 15.1434 92.2513 15.3792C91.9324 15.601 91.7105 16.0032 91.5857 16.5856L88.5905 15.8784C88.7846 14.88 89.2977 14.0826 90.1297 13.4864C90.9617 12.8901 92.1334 12.592 93.6449 12.592C95.1702 12.592 96.3489 12.9317 97.1809 13.6112C98.0268 14.2768 98.4497 15.2544 98.4497 16.544V20.3504C98.4497 20.8912 98.6924 21.1616 99.1777 21.1616C99.4273 21.1616 99.6284 21.1338 99.7809 21.0784L99.5729 23.096C99.1569 23.2901 98.6508 23.3872 98.0545 23.3872C97.4028 23.3872 96.8412 23.2624 96.3697 23.0128C95.8982 22.7493 95.5793 22.3541 95.4129 21.8272C95.1217 22.368 94.6572 22.7701 94.0193 23.0336C93.3953 23.2832 92.7297 23.408 92.0225 23.408C90.9548 23.408 90.102 23.1653 89.4641 22.68C88.8401 22.1808 88.5281 21.4666 88.5281 20.5376C88.5281 19.7888 88.75 19.1717 89.1937 18.6864C89.6513 18.1872 90.3654 17.8405 91.3361 17.6464L94.9345 16.8976V16.6064ZM92.0225 20.2048C92.0225 20.5098 92.1334 20.7386 92.3553 20.8912C92.5772 21.0437 92.8406 21.12 93.1457 21.12C93.6172 21.12 94.0332 20.9813 94.3937 20.704C94.7542 20.4128 94.9345 19.9621 94.9345 19.352V18.7696L93.2497 19.1232C92.8337 19.2064 92.5217 19.3312 92.3137 19.4976C92.1196 19.6501 92.0225 19.8858 92.0225 20.2048Z" fill="white"/>
<path d="M105.705 12.592C106.759 12.592 107.632 12.7445 108.326 13.0496C109.033 13.3546 109.581 13.7498 109.969 14.2352C110.357 14.7205 110.607 15.2474 110.718 15.816L107.452 16.8976C107.369 16.3013 107.196 15.8576 106.932 15.5664C106.669 15.2613 106.294 15.1088 105.809 15.1088C105.143 15.1088 104.637 15.3445 104.291 15.816C103.958 16.2874 103.791 17.0293 103.791 18.0416C103.791 19.0677 103.972 19.8026 104.332 20.2464C104.707 20.6762 105.206 20.8912 105.83 20.8912C106.814 20.8912 107.39 20.3296 107.556 19.2064L110.739 20.2256C110.586 21.1269 110.08 21.8826 109.22 22.4928C108.374 23.1029 107.251 23.408 105.851 23.408C104.145 23.408 102.779 22.9365 101.753 21.9936C100.741 21.0368 100.235 19.7056 100.235 18C100.235 16.8629 100.463 15.8922 100.921 15.088C101.392 14.2837 102.037 13.6666 102.855 13.2368C103.674 12.8069 104.623 12.592 105.705 12.592Z" fill="white"/>
<path d="M115.793 8.39038V17.168L119.745 12.8H123.676L119.849 16.8768L123.905 23.2H119.995L117.478 18.936L115.793 20.808V23.2H112.257V8.39038H115.793Z" fill="white"/>
<path d="M129.382 23.408C127.649 23.408 126.276 22.9365 125.264 21.9936C124.266 21.0506 123.766 19.7194 123.766 18C123.766 16.8629 123.995 15.8922 124.453 15.088C124.924 14.2698 125.562 13.6528 126.366 13.2368C127.185 12.8069 128.134 12.592 129.216 12.592C130.312 12.592 131.241 12.8069 132.003 13.2368C132.78 13.6528 133.369 14.2352 133.771 14.984C134.173 15.7189 134.374 16.5648 134.374 17.5216C134.374 17.785 134.361 18.0416 134.333 18.2912C134.319 18.5269 134.305 18.728 134.291 18.8944H127.198C127.296 19.6154 127.531 20.1354 127.906 20.4544C128.28 20.7594 128.772 20.912 129.382 20.912C129.909 20.912 130.325 20.808 130.63 20.6C130.949 20.392 131.185 20.1008 131.338 19.7264L134.166 20.6624C133.972 21.2586 133.633 21.7648 133.147 22.1808C132.676 22.5829 132.107 22.888 131.442 23.096C130.79 23.304 130.104 23.408 129.382 23.408ZM129.216 15.0672C128.093 15.0672 127.427 15.712 127.219 17.0016H131.026C130.873 15.712 130.27 15.0672 129.216 15.0672Z" fill="white"/>
<path d="M136.033 23.2V12.8H139.153L139.298 15.0464C139.548 14.2837 139.929 13.6874 140.442 13.2576C140.969 12.8138 141.642 12.592 142.46 12.592C142.723 12.592 142.945 12.6197 143.125 12.6752C143.319 12.7168 143.472 12.7653 143.583 12.8208L143.229 15.7328C143.091 15.6912 142.91 15.6496 142.689 15.608C142.481 15.5664 142.224 15.5456 141.919 15.5456C141.281 15.5456 140.726 15.7466 140.255 16.1488C139.797 16.5509 139.569 17.1541 139.569 17.9584V23.2H136.033Z" fill="white"/>
<path d="M148.856 23.408C147.816 23.408 146.852 23.2416 145.964 22.9088C145.077 22.5621 144.335 22.0698 143.739 21.432L145.403 19.4768C145.749 19.9205 146.207 20.2949 146.776 20.6C147.358 20.8912 148.003 21.0368 148.71 21.0368C149.14 21.0368 149.493 20.9744 149.771 20.8496C150.048 20.7248 150.187 20.5306 150.187 20.2672C150.187 20.0869 150.117 19.9344 149.979 19.8096C149.84 19.6848 149.563 19.5808 149.147 19.4976L147.691 19.2064C146.387 18.9429 145.458 18.5546 144.904 18.0416C144.363 17.5146 144.092 16.8282 144.092 15.9824C144.092 15.4138 144.266 14.873 144.612 14.36C144.959 13.8469 145.493 13.424 146.214 13.0912C146.935 12.7584 147.857 12.592 148.98 12.592C151.13 12.592 152.697 13.1882 153.681 14.3808L151.996 16.2944C151.664 15.8784 151.234 15.5525 150.707 15.3168C150.18 15.081 149.653 14.9632 149.126 14.9632C148.114 14.9632 147.608 15.2197 147.608 15.7328C147.608 15.913 147.691 16.0725 147.857 16.2112C148.037 16.3498 148.363 16.4608 148.835 16.544L150.728 16.9184C151.795 17.1264 152.565 17.4869 153.036 18C153.508 18.4992 153.744 19.1093 153.744 19.8304C153.744 20.8426 153.334 21.6954 152.516 22.3888C151.712 23.0682 150.492 23.408 148.856 23.408Z" fill="white"/>
</svg>
