<svg width="18" height="19" viewBox="0 0 18 19" fill="none" xmlns="http://www.w3.org/2000/svg">
<path d="M10.1261 11.56L11.5541 10.132L17.9961 16.574L16.5661 18.002L10.1261 11.56ZM10.1201 0C7.54007 0 4.96007 0.98 2.98007 2.95L2.97007 2.96C-0.979932 6.91 -0.979932 13.32 2.97007 17.27L17.2701 2.96C15.3001 0.99 12.7101 0 10.1201 0ZM3.14007 14.27C2.40007 13.03 2.00007 11.61 2.00007 10.12C2.00007 9.19 2.16007 8.3 2.46007 7.45C2.65007 9.36 3.35007 11.24 4.53007 12.89L3.14007 14.27ZM5.98007 11.43C4.63007 9.38 4.12007 6.93 4.60007 4.6C5.18007 4.48 5.76007 4.42 6.35007 4.42C8.15007 4.42 9.90007 4.97 11.4301 5.98L5.98007 11.43ZM7.45007 2.46C8.30007 2.16 9.19007 2 10.1201 2C11.6101 2 13.0301 2.4 14.2701 3.14L12.8801 4.53C11.2301 3.35 9.36007 2.65 7.45007 2.46Z" fill="#0F0E12"/>
</svg>
